<svg xmlns="http://www.w3.org/2000/svg" width="1200" height="1200" viewBox="0 0 1200 1200"><circle cx="600" cy="600" r="600" fill="#fff"/><path d="M603.11,232.26c141.08,0,224.07,83,224.07,198.13,0,77.8-45.65,135.89-108.92,158.74C796.06,609.88,850,677.3,850,764.42c0,118.29-91.28,203.32-228.22,203.32H350V232.26Zm-16.59,311.2c72.61,0,116.18-41.49,116.18-102.69,0-62.24-43.57-102.7-119.3-102.7h-110V543.46ZM600,861.92c74.69,0,123.44-40.45,123.44-105.8,0-63.28-42.53-107.87-119.29-107.87H473.44V861.94Z" fill="#262626"/></svg>