<?xml version="1.0" standalone="no"?>
<!DOCTYPE svg PUBLIC "-//W3C//DTD SVG 20010904//EN"
 "http://www.w3.org/TR/2001/REC-SVG-20010904/DTD/svg10.dtd">
<svg version="1.0" xmlns="http://www.w3.org/2000/svg"
 width="700.000000pt" height="700.000000pt" viewBox="0 0 700.000000 700.000000"
 preserveAspectRatio="xMidYMid meet">
<metadata>
Created by potrace 1.11, written by Peter Selinger 2001-2013
</metadata>
<g transform="translate(0.000000,700.000000) scale(0.100000,-0.100000)"
fill="#000000" stroke="none">
<path d="M2047 5643 c-4 -3 -7 -969 -7 -2145 l0 -2138 879 0 c836 0 885 1 998
20 262 45 475 140 655 294 321 274 458 730 348 1159 -83 327 -338 601 -659
708 l-64 22 86 42 c109 55 163 92 247 171 168 159 271 381 289 621 45 617
-320 1087 -941 1213 -56 12 -172 25 -257 30 -179 11 -1564 13 -1574 3z m1575
-637 c256 -61 414 -212 463 -442 57 -267 -58 -529 -282 -647 -146 -76 -176
-80 -635 -85 l-408 -3 0 601 0 602 398 -5 c317 -4 411 -8 464 -21z m132 -1814
c103 -29 167 -59 243 -115 171 -127 257 -379 209 -617 -49 -240 -210 -395
-486 -466 -55 -14 -137 -18 -512 -21 l-448 -5 0 627 0 626 458 -3 c433 -4 461
-5 536 -26z"/>
</g>
</svg>
